<?xml version="1.0" standalone="yes"?>

<svg version="1.1" viewBox="0.0 0.0 1024.0 768.0" fill="none" stroke="none" stroke-linecap="square" stroke-miterlimit="10" xmlns="http://www.w3.org/2000/svg" xmlns:xlink="http://www.w3.org/1999/xlink"><path d="M63.979153 47.95831L143.97916 47.95831L143.97916 79.958305L63.979153 79.958305Z" fill-rule="nonzero" fill="#eeeeee" stroke="#444444" stroke-width="2.0" stroke-linejoin="round" stroke-linecap="butt"></path><path d="M73.56773 36.671875Q72.94273 37.203125 72.3568 37.429688Q71.77086 37.65625 71.09898 37.65625Q69.97398 37.65625 69.38023 37.109375Q68.78648 36.5625 68.78648 35.71875Q68.78648 35.234375 69.01305 34.820312Q69.23961 34.40625 69.6068 34.15625Q69.97398 33.90625 70.42711 33.78125Q70.75523 33.703125 71.44273 33.609375Q72.81773 33.453125 73.47398 33.21875Q73.48961 32.984375 73.48961 32.921875Q73.48961 32.21875 73.16148 31.9375Q72.72398 31.546875 71.86461 31.546875Q71.05211 31.546875 70.6693 31.828125Q70.28648 32.109375 70.09898 32.828125L68.98961 32.6875Q69.13023 31.96875 69.4818 31.523438Q69.83336 31.078125 70.49742 30.84375Q71.16148 30.609375 72.02086 30.609375Q72.89586 30.609375 73.43492 30.8125Q73.97398 31.015625 74.22398 31.320312Q74.47398 31.625 74.58336 32.09375Q74.63023 32.390625 74.63023 33.15625L74.63023 34.671875Q74.63023 36.265625 74.70836 36.6875Q74.78648 37.109375 74.98961 37.5L73.80211 37.5Q73.63023 37.140625 73.56773 36.671875ZM73.47398 34.109375Q72.84898 34.375 71.61461 34.546875Q70.91148 34.65625 70.61461 34.78125Q70.31773 34.90625 70.16148 35.148438Q70.00523 35.390625 70.00523 35.6875Q70.00523 36.140625 70.34898 36.445312Q70.69273 36.75 71.36461 36.75Q72.02086 36.75 72.53648 36.460938Q73.05211 36.171875 73.30211 35.671875Q73.47398 35.296875 73.47398 34.53125L73.47398 34.109375Z" fill-rule="nonzero" fill="#000000"></path><path d="M39.333355 70.0L37.927105 70.0L37.927105 61.03125Q37.41148 61.515625 36.591167 62.0Q35.770855 62.484375 35.114605 62.734375L35.114605 61.375Q36.28648 60.8125 37.169292 60.023438Q38.052105 59.234375 38.427105 58.5L39.333355 58.5L39.333355 70.0ZM43.708355 63.296875L43.708355 61.703125L45.302105 61.703125L45.302105 63.296875L43.708355 63.296875ZM43.708355 70.0L43.708355 68.390625L45.302105 68.390625L45.302105 70.0L43.708355 70.0Z" fill-rule="nonzero" fill="#000000"></path><path d="M213.50197 68.640625L213.50197 70.0L205.92384 70.0Q205.90822 69.484375 206.09572 69.015625Q206.37697 68.25 207.0176 67.5Q207.65822 66.75 208.86134 65.765625Q210.72072 64.234375 211.37697 63.335938Q212.03322 62.4375 212.03322 61.640625Q212.03322 60.8125 211.43947 60.234375Q210.84572 59.65625 209.87697 59.65625Q208.86134 59.65625 208.25197 60.265625Q207.6426 60.875 207.6426 61.953125L206.18947 61.8125Q206.34572 60.1875 207.31447 59.34375Q208.28322 58.5 209.90822 58.5Q211.56447 58.5 212.5254 59.414062Q213.48634 60.328125 213.48634 61.671875Q213.48634 62.359375 213.2051 63.023438Q212.92384 63.6875 212.2676 64.421875Q211.61134 65.15625 210.09572 66.4375Q208.8301 67.5 208.47072 67.88281Q208.11134 68.265625 207.87697 68.640625L213.50197 68.640625ZM215.79884 63.296875L215.79884 61.703125L217.3926 61.703125L217.3926 63.296875L215.79884 63.296875ZM215.79884 70.0L215.79884 68.390625L217.3926 68.390625L217.3926 70.0L215.79884 70.0Z" fill-rule="nonzero" fill="#000000"></path><path d="M231.98438 47.95831L311.98438 47.95831L311.98438 79.958305L231.98438 79.958305Z" fill-rule="nonzero" fill="#eeeeee" stroke="#444444" stroke-width="2.0" stroke-linejoin="round" stroke-linecap="butt"></path><path d="M268.8125 67.020805L270.0 66.91143Q270.14062 67.802055 270.625 68.239555Q271.10938 68.677055 271.79688 68.677055Q272.625 68.677055 273.1953 68.052055Q273.76562 67.427055 273.76562 66.41143Q273.76562 65.427055 273.21875 64.864555Q272.67188 64.302055 271.78125 64.302055Q271.21875 64.302055 270.77344 64.552055Q270.32812 64.802055 270.07812 65.19268L269.01562 65.052055L269.90625 60.286434L274.53125 60.286434L274.53125 61.36456L270.82812 61.36456L270.32812 63.86456Q271.15625 63.286434 272.07812 63.286434Q273.29688 63.286434 274.1328 64.13018Q274.96875 64.97393 274.96875 66.302055Q274.96875 67.56768 274.23438 68.489555Q273.34375 69.614555 271.79688 69.614555Q270.53125 69.614555 269.72656 68.90362Q268.92188 68.19268 268.8125 67.020805Z" fill-rule="nonzero" fill="#000000"></path><path d="M241.57295 36.671875Q240.94795 37.203125 240.36201 37.429688Q239.77608 37.65625 239.1042 37.65625Q237.9792 37.65625 237.38545 37.109375Q236.7917 36.5625 236.7917 35.71875Q236.7917 35.234375 237.01826 34.820312Q237.24483 34.40625 237.61201 34.15625Q237.9792 33.90625 238.43233 33.78125Q238.76045 33.703125 239.44795 33.609375Q240.82295 33.453125 241.4792 33.21875Q241.49483 32.984375 241.49483 32.921875Q241.49483 32.21875 241.1667 31.9375Q240.7292 31.546875 239.86983 31.546875Q239.05733 31.546875 238.67451 31.828125Q238.2917 32.109375 238.1042 32.828125L236.99483 32.6875Q237.13545 31.96875 237.48701 31.523438Q237.83858 31.078125 238.50264 30.84375Q239.1667 30.609375 240.02608 30.609375Q240.90108 30.609375 241.44014 30.8125Q241.9792 31.015625 242.2292 31.320312Q242.4792 31.625 242.58858 32.09375Q242.63545 32.390625 242.63545 33.15625L242.63545 34.671875Q242.63545 36.265625 242.71358 36.6875Q242.7917 37.109375 242.99483 37.5L241.80733 37.5Q241.63545 37.140625 241.57295 36.671875ZM241.4792 34.109375Q240.8542 34.375 239.61983 34.546875Q238.9167 34.65625 238.61983 34.78125Q238.32295 34.90625 238.1667 35.148438Q238.01045 35.390625 238.01045 35.6875Q238.01045 36.140625 238.3542 36.445312Q238.69795 36.75 239.36983 36.75Q240.02608 36.75 240.5417 36.460938Q241.05733 36.171875 241.30733 35.671875Q241.4792 35.296875 241.4792 34.53125L241.4792 34.109375Z" fill-rule="nonzero" fill="#000000"></path><path d="M382.03198 66.96875L383.43823 66.78125Q383.68823 67.984375 384.26636 68.50781Q384.84448 69.03125 385.68823 69.03125Q386.6726 69.03125 387.3601 68.34375Q388.0476 67.65625 388.0476 66.640625Q388.0476 65.671875 387.4148 65.046875Q386.78198 64.421875 385.7976 64.421875Q385.40698 64.421875 384.81323 64.578125L384.96948 63.34375Q385.1101 63.359375 385.18823 63.359375Q386.09448 63.359375 386.81323 62.890625Q387.53198 62.421875 387.53198 61.4375Q387.53198 60.671875 387.00854 60.164062Q386.4851 59.65625 385.65698 59.65625Q384.82886 59.65625 384.28198 60.171875Q383.7351 60.6875 383.57886 61.71875L382.1726 61.46875Q382.43823 60.046875 383.3523 59.273438Q384.26636 58.5 385.62573 58.5Q386.56323 58.5 387.3523 58.898438Q388.14136 59.296875 388.55542 59.992188Q388.96948 60.6875 388.96948 61.46875Q388.96948 62.21875 388.57104 62.828125Q388.1726 63.4375 387.39136 63.796875Q388.40698 64.03125 388.96948 64.765625Q389.53198 65.5 389.53198 66.609375Q389.53198 68.109375 388.43823 69.15625Q387.34448 70.203125 385.6726 70.203125Q384.1726 70.203125 383.1726 69.30469Q382.1726 68.40625 382.03198 66.96875ZM391.71948 63.296875L391.71948 61.703125L393.31323 61.703125L393.31323 63.296875L391.71948 63.296875ZM391.71948 70.0L391.71948 68.390625L393.31323 68.390625L393.31323 70.0L391.71948 70.0Z" fill-rule="nonzero" fill="#000000"></path><path d="M407.94266 47.95831L487.94266 47.95831L487.94266 79.958305L407.94266 79.958305Z" fill-rule="nonzero" fill="#eeeeee" stroke="#444444" stroke-width="2.0" stroke-linejoin="round" stroke-linecap="butt"></path><path d="M444.77078 67.020805L445.95828 66.91143Q446.0989 67.802055 446.58328 68.239555Q447.06766 68.677055 447.75516 68.677055Q448.58328 68.677055 449.1536 68.052055Q449.7239 67.427055 449.7239 66.41143Q449.7239 65.427055 449.17703 64.864555Q448.63016 64.302055 447.73953 64.302055Q447.17703 64.302055 446.73172 64.552055Q446.2864 64.802055 446.0364 65.19268L444.9739 65.052055L445.86453 60.286434L450.48953 60.286434L450.48953 61.36456L446.7864 61.36456L446.2864 63.86456Q447.11453 63.286434 448.0364 63.286434Q449.25516 63.286434 450.0911 64.13018Q450.92703 64.97393 450.92703 66.302055Q450.92703 67.56768 450.19266 68.489555Q449.30203 69.614555 447.75516 69.614555Q446.48953 69.614555 445.68484 68.90362Q444.88016 68.19268 444.77078 67.020805Z" fill-rule="nonzero" fill="#000000"></path><path d="M417.53125 36.671875Q416.90625 37.203125 416.3203 37.429688Q415.73438 37.65625 415.0625 37.65625Q413.9375 37.65625 413.34375 37.109375Q412.75 36.5625 412.75 35.71875Q412.75 35.234375 412.97656 34.820312Q413.20312 34.40625 413.5703 34.15625Q413.9375 33.90625 414.39062 33.78125Q414.71875 33.703125 415.40625 33.609375Q416.78125 33.453125 417.4375 33.21875Q417.45312 32.984375 417.45312 32.921875Q417.45312 32.21875 417.125 31.9375Q416.6875 31.546875 415.82812 31.546875Q415.01562 31.546875 414.6328 31.828125Q414.25 32.109375 414.0625 32.828125L412.95312 32.6875Q413.09375 31.96875 413.4453 31.523438Q413.79688 31.078125 414.46094 30.84375Q415.125 30.609375 415.98438 30.609375Q416.85938 30.609375 417.39844 30.8125Q417.9375 31.015625 418.1875 31.320312Q418.4375 31.625 418.54688 32.09375Q418.59375 32.390625 418.59375 33.15625L418.59375 34.671875Q418.59375 36.265625 418.67188 36.6875Q418.75 37.109375 418.95312 37.5L417.76562 37.5Q417.59375 37.140625 417.53125 36.671875ZM417.4375 34.109375Q416.8125 34.375 415.57812 34.546875Q414.875 34.65625 414.57812 34.78125Q414.28125 34.90625 414.125 35.148438Q413.96875 35.390625 413.96875 35.6875Q413.96875 36.140625 414.3125 36.445312Q414.65625 36.75 415.32812 36.75Q415.98438 36.75 416.5 36.460938Q417.01562 36.171875 417.26562 35.671875Q417.4375 35.296875 417.4375 34.53125L417.4375 34.109375Z" fill-rule="nonzero" fill="#000000"></path><path d="M519.9427 47.95831L599.9427 47.95831L599.9427 79.958305L519.9427 79.958305Z" fill-rule="nonzero" fill="#eeeeee" stroke="#444444" stroke-width="2.0" stroke-linejoin="round" stroke-linecap="butt"></path><path d="M556.7708 67.020805L557.9583 66.91143Q558.09894 67.802055 558.5833 68.239555Q559.0677 68.677055 559.7552 68.677055Q560.5833 68.677055 561.1536 68.052055Q561.72394 67.427055 561.72394 66.41143Q561.72394 65.427055 561.17706 64.864555Q560.6302 64.302055 559.73956 64.302055Q559.17706 64.302055 558.73175 64.552055Q558.28644 64.802055 558.03644 65.19268L556.97394 65.052055L557.86456 60.286434L562.48956 60.286434L562.48956 61.36456L558.78644 61.36456L558.28644 63.86456Q559.11456 63.286434 560.03644 63.286434Q561.2552 63.286434 562.0911 64.13018Q562.92706 64.97393 562.92706 66.302055Q562.92706 67.56768 562.1927 68.489555Q561.30206 69.614555 559.7552 69.614555Q558.48956 69.614555 557.6849 68.90362Q556.8802 68.19268 556.7708 67.020805Z" fill-rule="nonzero" fill="#000000"></path><path d="M526.1875 37.5L525.125 37.5L525.125 28.1875L526.28125 28.1875L526.28125 31.515625Q527.0 30.609375 528.125 30.609375Q528.75 30.609375 529.3047 30.859375Q529.8594 31.109375 530.21875 31.5625Q530.5781 32.015625 530.78125 32.65625Q530.9844 33.296875 530.9844 34.03125Q530.9844 35.765625 530.125 36.710938Q529.2656 37.65625 528.0625 37.65625Q526.875 37.65625 526.1875 36.65625L526.1875 37.5ZM526.1719 34.078125Q526.1719 35.296875 526.5156 35.828125Q527.0469 36.71875 527.96875 36.71875Q528.71875 36.71875 529.2656 36.0625Q529.8125 35.40625 529.8125 34.125Q529.8125 32.796875 529.28906 32.171875Q528.7656 31.546875 528.0156 31.546875Q527.2656 31.546875 526.71875 32.195312Q526.1719 32.84375 526.1719 34.078125Z" fill-rule="nonzero" fill="#000000"></path></svg>

